<svg xmlns="http://www.w3.org/2000/svg" version="1.1" xmlns:xlink="http://www.w3.org/1999/xlink" xmlns:svgjs="http://svgjs.com/svgjs" width="174.62498mm" height="174.62498mm"><svg xmlns:dc="http://purl.org/dc/elements/1.1/" xmlns:cc="http://creativecommons.org/ns#" xmlns:rdf="http://www.w3.org/1999/02/22-rdf-syntax-ns#" xmlns:svg="http://www.w3.org/2000/svg" xmlns="http://www.w3.org/2000/svg" xmlns:sodipodi="http://sodipodi.sourceforge.net/DTD/sodipodi-0.dtd" xmlns:inkscape="http://www.inkscape.org/namespaces/inkscape" width="174.62498mm" height="174.62498mm" viewBox="0 0 174.62498 174.62498" version="1.1" id="SvgjsSvg1005" sodipodi:docname="cross.svg" inkscape:version="0.92.5 (2060ec1f9f, 2020-04-08)">
  <defs id="SvgjsDefs1004"></defs>
  <sodipodi:namedview id="SvgjsSodipodi:namedview1003" pagecolor="#ffffff" bordercolor="#666666" borderopacity="1.0" inkscape:pageopacity="0.0" inkscape:pageshadow="2" inkscape:zoom="0.51780308" inkscape:cx="329.99997" inkscape:cy="546.49854" inkscape:document-units="mm" inkscape:current-layer="layer1" showgrid="false" inkscape:window-width="1920" inkscape:window-height="1009" inkscape:window-x="0" inkscape:window-y="0" inkscape:window-maximized="1"></sodipodi:namedview>
  <metadata id="SvgjsMetadata1002">
    <rdf:rdf>
      <cc:work rdf:about="">
        <dc:format>image/svg+xml</dc:format>
        <dc:type rdf:resource="http://purl.org/dc/dcmitype/StillImage"></dc:type>
      </cc:work>
    </rdf:rdf>
  </metadata>
  <g inkscape:label="Layer 1" inkscape:groupmode="layer" id="SvgjsG1001" transform="translate(-17.481471,-23.345491)">
    <path style="fill:#000000;stroke-width:0.23665051" d="m 80.98147,23.345491 v 15.875 h 15.875 v 15.875 15.875 15.875 15.874999 h -15.875 -15.875 -15.875 -15.874999 V 86.845491 h -15.875 v 15.874999 15.875 15.875 h 15.875 v -15.875 h 15.874999 15.875 15.875 15.875 v 15.875 15.875 15.87499 15.875 h -15.875 v 15.875 h 15.875 15.875 15.875 v -15.875 h -15.875 v -15.875 -15.87499 -15.875 -15.875 h 15.875 15.875 15.875 15.875 v 15.875 h 15.87499 v -15.875 -15.875 -15.874999 h -15.87499 v 15.874999 h -15.875 -15.875 -15.875 -15.875 v -15.874999 -15.875 -15.875 -15.875 h 15.875 v -15.875 h -15.875 -15.875 z m -31.75,15.875 v 15.875 H 33.356471 v 15.875 H 49.23147 v 15.875 h 15.875 v -15.875 h 15.875 v -15.875 h -15.875 v -15.875 z m 95.25,0 v 15.875 h -15.875 v 15.875 h 15.875 v 15.875 h 15.875 v -15.875 h 15.875 v -15.875 h -15.875 v -15.875 z m -95.25,95.249999 v 15.875 H 33.356471 v 15.87499 H 49.23147 v 15.875 h 15.875 v -15.875 h 15.875 v -15.87499 h -15.875 v -15.875 z m 95.25,0 v 15.875 h -15.875 v 15.87499 h 15.875 v 15.875 h 15.875 v -15.875 h 15.875 v -15.87499 h -15.875 v -15.875 z" id="SvgjsPath1000" inkscape:connector-curvature="0"></path>
  </g>
</svg><style>@media (prefers-color-scheme: light) { :root { filter: contrast(1) brightness(1); } }
@media (prefers-color-scheme: dark) { :root { filter: invert(100%); } }
</style></svg>